<?xml version="1.0" encoding="UTF-8" standalone="no"?>
<!-- Created with Inkscape (http://www.inkscape.org/) -->

<svg
   width="114.39777mm"
   height="110.80359mm"
   viewBox="0 0 114.39777 110.80359"
   version="1.1"
   id="svg8246"
   inkscape:version="1.1 (c68e22c387, 2021-05-23)"
   sodipodi:docname="Log.svg"
   xmlns:inkscape="http://www.inkscape.org/namespaces/inkscape"
   xmlns:sodipodi="http://sodipodi.sourceforge.net/DTD/sodipodi-0.dtd"
   xmlns="http://www.w3.org/2000/svg"
   xmlns:svg="http://www.w3.org/2000/svg">
  <sodipodi:namedview
     id="namedview8248"
     pagecolor="#ffffff"
     bordercolor="#666666"
     borderopacity="1.0"
     inkscape:pageshadow="2"
     inkscape:pageopacity="0.0"
     inkscape:pagecheckerboard="0"
     inkscape:document-units="mm"
     showgrid="false"
     inkscape:zoom="1.3416246"
     inkscape:cx="131.18424"
     inkscape:cy="102.48769"
     inkscape:window-width="1680"
     inkscape:window-height="987"
     inkscape:window-x="-8"
     inkscape:window-y="-8"
     inkscape:window-maximized="1"
     inkscape:current-layer="g19967" />
  <defs
     id="defs8243" />
  <g
     inkscape:label="Layer 1"
     inkscape:groupmode="layer"
     id="layer1"
     transform="translate(-59.649267,-100.31054)">
    <g
       id="g19967"
       transform="translate(10.773136,-201.19385)">
      <path
         style="fill:#7d8f70;fill-opacity:1;stroke-width:0.264583"
         d="m 99.752068,412.12171 c -13.959278,-2.11187 -28.048121,-3.60836 -41.781482,-6.98738 -5.828619,0.83357 -11.537742,-5.44639 -8.006972,-10.84384 4.303791,-14.431 8.676427,-28.84536 13.506047,-43.11069 2.981942,0.53304 8.164906,-8.16838 6.099524,-2.49319 -3.610753,12.81691 -7.549254,25.53933 -11.100237,38.37331 4.428758,-12.79559 7.506807,-26.01172 11.606531,-38.91426 0.948643,-2.62332 0.867865,-3.85993 1.514728,-3.11405 1.760112,-3.76423 -0.703326,3.64559 -1.057544,5.08491 -3.394171,11.63141 -6.765085,23.27199 -9.806695,35.0016 8.962236,3.73285 18.450823,6.31651 26.875919,11.25214 4.4949,0.91864 7.59639,6.04075 12.362364,5.57735 -0.783986,-6.6144 -8.901223,-7.48926 -13.288754,-11.06983 -6.35861,-3.39899 -12.971219,-6.31435 -19.737259,-8.80154 5.693687,0.39131 10.542695,3.78071 15.827575,5.58599 1.605219,1.29752 10.004763,4.85795 4.674912,1.17913 -5.870323,-3.20515 -12.031647,-5.84926 -18.232727,-8.34094 -0.863523,-1.33184 5.840483,1.40577 7.594105,2.14674 7.384814,3.18385 14.586255,6.77277 21.26646,11.27764 3.962077,2.39105 -2.233713,-2.80165 -3.800765,-3.30217 -4.701105,-2.86638 -9.343023,-5.7796 -14.407978,-7.99109 -3.348994,-1.86639 -7.244929,-2.66892 -10.480784,-4.63258 2.565087,-0.31617 7.213965,2.39432 10.429112,3.57472 7.142627,2.99712 13.843063,6.91405 20.276462,11.19699 -3.670177,-4.01011 -8.763293,-6.36387 -13.349212,-9.15755 -5.862103,-3.17631 -11.996344,-5.82335 -18.22824,-8.18144 6.400436,0.57667 11.885348,4.34084 17.713998,6.72222 4.787432,2.42382 9.311998,5.32296 13.794334,8.26243 -3.788934,-4.45842 -9.514349,-6.47033 -14.228554,-9.73073 -5.24148,-2.85348 -10.793248,-5.06884 -16.313159,-7.31348 6.242684,0.50545 11.544158,4.27773 17.17695,6.67115 4.404297,2.23735 8.814917,4.5846 12.594403,7.80412 -1.25279,-2.72027 -6.725419,-5.45491 -9.90758,-7.60339 -6.096714,-3.54797 -12.555051,-6.43394 -19.129115,-8.97288 5.117024,-0.075 9.276166,3.62122 14.050669,4.99253 5.854371,2.34196 10.747184,6.40325 15.991126,9.73766 -4.33322,-4.76756 -10.367642,-7.62274 -15.829511,-10.91013 -4.542969,-2.33908 -9.285073,-4.25638 -14.021064,-6.16252 5.886188,0.40823 10.844221,4.02603 16.213797,6.09771 4.95378,2.55536 9.499606,5.81305 13.930418,9.1748 -2.80843,-4.06055 -7.608993,-6.01719 -11.446482,-8.91735 -5.802581,-3.42643 -11.99951,-6.11652 -18.240527,-8.62996 6.39181,0.81323 11.954014,4.36069 17.784259,6.81607 1.556325,0.99984 6.063971,4.6514 6.035699,2.99109 -6.976175,-4.91126 -14.678029,-8.65457 -22.595555,-11.74929 4.612299,0.11271 10.738152,3.83008 15.539395,5.99201 4.720845,1.88685 8.197749,5.76054 12.539661,8.25455 -7.756508,-7.16831 -17.238262,-12.18268 -27.023786,-15.98964 5.029437,-0.0391 9.329415,3.54169 13.896358,5.34299 5.088557,2.69586 9.941951,5.94309 13.987828,10.06865 -3.207144,-4.84973 -8.662687,-7.50158 -13.362912,-10.667 -4.848887,-2.82051 -9.932457,-5.23209 -15.163769,-7.25444 5.748897,0.35215 10.638308,4.03232 15.798737,6.22656 4.486172,2.22486 8.336716,6.14136 12.375864,8.57014 -7.887369,-7.35332 -17.476059,-12.70016 -27.40131,-16.80277 5.289354,0.30637 9.575773,3.90552 14.349323,5.81397 5.003485,2.73563 9.707483,6.09811 13.624287,10.26278 -3.062005,-4.91833 -8.587781,-7.42721 -13.07574,-10.82128 -4.654619,-2.87966 -9.589459,-5.27394 -14.592141,-7.48124 5.380939,0.59498 9.861109,4.00569 14.679907,6.18591 4.735759,2.71813 8.985689,6.18547 13.071004,9.78609 -4.155247,-5.1223 -10.009344,-8.51274 -15.507613,-12.01941 -3.750281,-2.19042 -7.650563,-4.11789 -11.636309,-5.84047 5.105981,0.0645 9.086261,3.83086 13.618604,5.68641 4.639515,2.70537 8.733732,6.20707 13.017758,9.41911 -7.363093,-7.58471 -16.78555,-12.71086 -26.148321,-17.41033 7.506943,1.76632 14.023623,6.29103 20.217283,10.69119 2.195404,0.98296 5.665408,6.07795 6.759888,4.61804 -0.14315,-1.87876 -0.32336,-7.56985 2.60773,-4.11886 2.27691,-4.16802 1.15254,3.90364 2.87111,0.18573 7.84266,-8.51591 18.48853,-13.70067 29.1232,-17.83841 -3.45983,3.43749 -8.73855,3.76036 -12.55792,6.70343 -1.87379,0.80835 -8.53274,5.67839 -3.56773,3.16827 5.41054,-2.59595 10.56002,-6.01766 16.53962,-7.17623 -10.51388,4.96318 -21.43511,10.03367 -29.48824,18.67 3.16808,-2.31246 8.00943,-6.3775 12.26656,-8.72023 5.23476,-2.89684 10.54671,-5.95022 16.37405,-7.43766 -3.10999,2.47477 -10.91052,4.92353 -15.32384,8.12821 -4.25005,2.33475 -12.85139,9.0222 -13.29426,10.17367 5.69756,-4.19172 11.29564,-8.59661 17.80206,-11.49983 3.90169,-1.93716 7.94246,-3.6029 12.10284,-4.89886 -4.48908,3.16595 -10.16549,4.05128 -14.57829,7.4007 -5.52967,3.34341 -11.0416,6.8108 -15.83415,11.17752 2.97546,-1.00158 6.91058,-5.5486 10.68038,-7.22514 6.23107,-3.78741 12.95978,-6.69009 19.83307,-9.09132 -3.94921,3.22455 -9.3757,3.73221 -13.49131,6.7584 -5.99285,3.27187 -11.67888,7.12625 -16.83889,11.60321 1.95586,-0.56526 6.16836,-4.72623 9.20384,-6.32381 5.49826,-3.30998 11.39079,-5.99966 17.35213,-8.38412 1.97244,-0.77121 7.11901,-2.38107 2.53242,-0.14815 -5.36311,2.13223 -10.6519,4.4124 -15.58555,7.44017 -4.89522,2.83046 -9.58052,6.04553 -13.858,9.75009 2.80712,-0.96339 6.56931,-5.21093 10.20604,-6.7002 6.79238,-4.09965 14.11833,-7.29448 21.70297,-9.60974 -4.76676,3.27101 -10.73683,4.11007 -15.51268,7.41977 -5.37267,3.21883 -11.14797,6.07199 -15.64834,10.48616 5.50636,-3.07062 10.63934,-7.64355 16.77149,-9.90587 4.85913,-2.29468 9.8303,-4.43896 15.06674,-5.71415 -4.70025,2.96779 -10.45507,3.66343 -15.08318,6.83479 -5.4304,3.24904 -11.17734,6.08977 -16.13623,10.05212 -0.20587,1.3288 4.72498,-2.95607 6.4328,-3.64167 6.24306,-4.2273 13.30714,-6.95365 20.31484,-9.62992 1.88457,-1.10944 6.71363,-1.08134 2.07009,0.1578 -10.34852,3.61325 -20.29472,8.72981 -28.97868,15.45777 -1.37797,2.0319 3.98973,-2.23279 5.02372,-2.81658 7.93757,-4.95541 16.56257,-8.87667 25.50833,-11.61393 2.62159,-0.0924 -4.03092,2.22917 -5.34452,2.69336 -9.22301,3.46311 -17.77255,8.57923 -25.82649,14.21988 5.10678,-1.96778 9.22861,-5.89379 14.40395,-7.79208 5.99323,-3.00456 12.17026,-5.82286 18.76749,-7.19848 -6.79543,3.30777 -14.26042,5.2086 -20.56715,9.50282 -3.8366,2.28579 -10.18256,5.28299 -12.07997,7.94075 9.01639,-6.01324 18.87244,-10.80761 29.12544,-14.29921 1.56732,-0.48005 6.08929,-1.55372 2.20966,0.034 -5.71152,2.34552 -11.76169,3.94624 -16.96504,7.39331 -4.76168,2.61232 -9.67441,5.01477 -14.04256,8.27423 0.0618,1.90777 4.9282,-3.08841 6.78632,-3.42205 8.10671,-4.70048 16.74761,-8.53223 25.78688,-11.04048 -3.91327,2.90662 -9.35534,3.1804 -13.54044,5.90716 -6.53727,3.11432 -12.76723,6.82234 -18.88415,10.69151 -1.54169,2.6065 3.94418,-2.35519 5.21307,-2.60948 8.20998,-4.63943 16.88095,-8.61309 25.91857,-11.32736 3.75131,-0.15073 -5.69757,2.4982 -7.25728,3.33432 -8.58177,3.65611 -16.77843,8.25118 -24.56374,13.37303 4.41956,-0.85357 7.83861,-4.90398 12.23248,-6.37363 7.02144,-3.65448 14.37989,-6.73955 22.07309,-8.66083 -5.04532,3.10442 -11.11998,3.92769 -16.24903,6.87497 -1.6837,0.70135 -6.86471,3.52663 -5.69264,3.73872 7.09596,-2.78957 13.88388,-6.62297 21.44502,-8.06647 -2.98532,2.11751 -10.86806,4.04195 -15.54732,6.52312 -4.46109,2.30347 -8.7401,4.93268 -13.23416,7.16835 -2.30033,0.57171 -7.05513,5.44183 -2.30436,2.23994 9.92999,-5.96729 20.61689,-10.82342 31.75266,-14.00184 -3.16072,2.71053 -10.4823,3.57172 -14.89253,6.39806 -6.07387,2.77588 -11.81247,6.23066 -17.6555,9.42276 -3.38761,1.23006 -2.39199,7.87858 1.02822,3.73139 11.73694,-6.44825 24.14813,-11.68708 37.03921,-15.35952 3.02375,-4.33925 -1.92563,-9.66595 -1.6748,-14.50463 -2.16756,-9.68783 -4.25051,-19.39559 -6.59115,-29.04376 3.442,4.28341 2.88444,10.23698 4.75038,15.20496 2.29985,9.75283 4.41047,19.55246 6.97139,29.24198 -0.70717,-6.76346 -3.10382,-13.20835 -4.4292,-19.8636 -1.80209,-6.93123 -3.20796,-13.96665 -4.92062,-20.9048 1.59575,2.01737 6.65003,4.14083 8.02004,7.47462 1.56039,6.65759 4.1456,13.09412 6.02652,19.69228 2.28093,7.00531 4.19145,14.17548 6.70288,21.078 3.55482,5.54933 -2.12547,11.52361 -7.91813,10.75787 -16.331,3.26808 -32.84226,5.67101 -49.40357,7.38553 -1.72261,0.0969 -3.45717,0.0993 -5.170852,-0.12371 z m 0.299872,-14.75702 c -1.748326,-2.27442 -7.341783,-6.20927 -8.2564,-4.98231 2.688482,1.44628 6.147663,3.93768 8.2564,4.98231 z m 12.76408,-5.60885 c 1.9668,-0.0667 6.85836,-4.9187 2.22062,-2.16409 -1.6374,0.89274 -7.77007,3.94682 -6.18169,4.56009 1.32816,-0.78576 2.61207,-1.64528 3.96107,-2.396 z m -59.237802,1.06684 c -0.476908,-1.21377 -0.33486,3.09087 0,0 z m 103.600442,-0.94004 c -0.51167,-2.69269 -0.0464,3.50246 0,0 z m -1.4189,-2.38621 c -1.40349,-4.60745 0.77057,4.31034 0.1464,0.52431 -0.0488,-0.17477 -0.0976,-0.34954 -0.1464,-0.52431 z m -100.641092,1.18053 c -0.850479,0.24964 -0.0031,1.45552 0,0 z m 98.601672,-6.17408 c -0.2978,-1.70985 -2.27676,-7.74559 -1.09991,-3.06453 0.59803,1.98163 1.76984,7.81855 2.27621,7.45163 -0.36965,-1.4683 -0.77409,-2.92749 -1.1763,-4.3871 z m -98.591582,3.13838 c -1.477469,2.74502 -0.492764,3.30981 0,0 z m 98.218852,-1.85819 c -0.81057,-2.30106 -2.21142,-9.66092 -2.55975,-8.90131 1.025,4.31272 2.01522,8.64478 3.45865,12.84175 -0.17941,-1.33884 -0.58206,-2.63133 -0.8989,-3.94044 z m -96.228112,1.83076 c 0.857028,-5.03281 -1.998216,5.07079 0,0 z m 99.037252,1.30073 c -0.67956,-0.29803 0.66427,1.71904 0,0 z m -3.62583,-3.43155 c -1.37211,-5.68116 -3.21214,-11.38732 -4.0193,-17.09714 -0.18748,2.82189 -0.89754,-5.73679 -0.80145,-1.00739 1.76619,6.90005 3.086,13.97948 5.41197,20.6995 -0.12617,-0.8803 -0.4013,-1.72833 -0.59122,-2.59497 z m 3.68703,1.76137 c -1.42258,-0.90889 0.1033,2.19864 0,0 z m 0.54371,0.26458 c -1.03918,0.16472 0.13056,1.70361 0,0 z m -97.111822,-6.2177 c 1.283621,-5.00837 3.248227,-9.84412 4.168858,-14.94086 -1.562948,3.64754 -2.258817,8.85491 -3.814159,11.46746 0.107527,2.66616 -2.413088,7.8704 -1.922399,8.5921 0.55471,-1.69603 1.056977,-3.40903 1.5677,-5.1187 z m 92.544822,6.15156 c -1.77886,-7.56441 -3.65161,-15.10739 -5.68197,-22.60846 1.73644,7.71852 3.46819,15.44362 5.61843,23.05987 l 0.0374,-0.26573 z m 2.57183,-1.50246 c -0.95345,-2.00925 0.59965,2.93001 0,0 z m -98.840162,-0.94494 c -1.153379,0.41688 0.487727,2.3301 0,0 z m 92.884342,-4.37262 c -2.9131,-12.14007 -5.50302,-24.35793 -8.64217,-36.44337 2.92448,13.7187 6.13735,27.37342 9.30875,41.03648 1.26398,2.36731 -0.73758,-4.30861 -0.66658,-4.59311 z m -85.560862,-6.50398 c 0.669921,-2.68228 2.781121,-9.0325 2.464038,-9.45877 -2.138359,7.10693 -4.150643,14.25087 -6.244651,21.37085 1.729897,-3.809 2.507115,-7.9477 3.780613,-11.91208 z m 91.848612,11.09158 c -0.67952,-0.29812 0.66419,1.71907 0,0 z m -97.514572,-0.28553 c -0.929458,-0.29117 1.07335,1.14763 0,0 z m -1.26444,-0.60232 c -0.646702,-1.14968 0.219239,1.46287 0,0 z m 1.98817,-0.91463 c -1.153379,0.41688 0.487727,2.3301 0,0 z m 95.732512,0.21498 c -0.67952,-0.29812 0.66419,1.71907 0,0 z m 0.46182,-0.59295 c -0.95343,-2.00925 0.59939,2.92995 0,0 z m -0.72641,-0.46539 c -0.67955,-0.29806 0.6643,1.71907 0,0 z m -97.102072,-0.26458 c -0.679539,-0.29808 0.664213,1.71906 0,0 z m 2.11667,-0.79375 c -0.679565,-0.29807 0.664224,1.71904 0,0 z m 41.223682,-0.69846 c -0.66854,-2.07658 -6.910606,-4.00143 -2.432298,-1.40768 0.388986,0.25614 4.386208,3.78196 2.432298,1.40768 z m 53.56239,0.0646 c 0.52489,-1.73673 -1.97572,-0.4196 0,0 z M 57.513828,379.7038 c -1.153378,0.41687 0.48773,2.33013 0,0 z m 1.35606,1.03628 c 0.618179,-1.20373 -1.419985,0.10273 0,0 z m 0.77515,-1.69774 c -1.151519,0.32544 0.280569,1.8971 0,0 z m 93.072132,-0.1819 c -0.67952,-0.29812 0.66419,1.71907 0,0 z m -1.05833,-1.5875 c -0.67952,-0.29812 0.66419,1.71907 0,0 z m 0.52916,-0.26459 c -0.67956,-0.29803 0.66427,1.71904 0,0 z m 0.52917,0 c -0.67955,-0.29805 0.66422,1.71904 0,0 z M 58.525508,376.2146 c -0.679548,-0.29806 0.664293,1.71907 0,0 z m 92.398222,-1.77731 c -1.33139,-4.31361 0.74905,4.02629 0.0164,0.0627 z m 0.73511,0.71894 c -0.67954,-0.29807 0.66422,1.71906 0,0 z m -92.604162,-0.79375 c -0.679539,-0.29808 0.664213,1.71906 0,0 z m 93.053542,-0.0964 c -0.10044,-1.15963 -0.67869,1.62241 0,0 z m -2.03688,-0.69732 c -0.67954,-0.29807 0.66422,1.71906 0,0 z m 1.93592,-0.51079 c -0.84342,-0.67733 -0.13443,1.61344 0,0 z m -2.40329,-1.40193 c -1.18786,-2.75566 0.80442,3.44522 0,0 z m 0.46737,-0.20395 c -0.67955,-0.29805 0.66422,1.71904 0,0 z m -0.26459,-1.05833 c -0.67954,-0.29808 0.66428,1.71908 0,0 z m -0.52916,-1.85208 c -0.67953,-0.29811 0.66421,1.7191 0,0 z m -41.04962,-4.22709 c 2.00457,-2.86258 6.27532,-3.92842 7.72403,-6.96934 -2.9638,2.04717 -8.97921,6.63855 -9.10411,8.37347 0.44784,-0.47747 0.74203,-1.13054 1.38008,-1.40413 z m -42.624382,-3.22331 c 0.996003,-2.6514 0.96058,-4.55681 -0.07665,-0.79558 -0.819486,2.22105 -1.323815,5.88069 -0.131886,1.49584 0.06951,-0.23342 0.139023,-0.46684 0.208535,-0.70026 z m 81.539412,2.70386 c -0.69136,-4.2803 -0.49161,2.65258 -0.002,0.15313 z m -0.77583,-0.016 c -0.67952,-0.29812 0.66419,1.71907 0,0 z m -0.33193,-1.3867 c -0.95344,-2.00924 0.59964,2.92997 0,0 z m -77.788052,-5.62931 c 0.893752,-1.95363 1.044921,-5.32876 0.138821,-1.39778 -0.831088,1.84237 -2.297567,8.85461 -0.687587,3.32384 0.181788,-0.64234 0.359194,-1.28594 0.548766,-1.92606 z m -4.78403,4.0115 c -0.646693,-1.14969 0.21922,1.46286 0,0 z m 82.042912,-0.49886 c -0.9534,-2.00927 0.59936,2.92995 0,0 z m 0.52917,-0.26458 c -0.95344,-2.00924 0.59964,2.92997 0,0 z M 63.668738,359.6814 c -1.099719,-1.11918 1.020006,2.17153 0,0 z m 81.370002,-1.21047 c -0.69189,0.3647 0.87834,1.56643 0,0 z m -0.34059,-1.48828 c -0.85086,-2.41944 0.40202,3.24654 0,0 z m 0.61069,0.44649 c -0.67952,-0.29812 0.66419,1.71907 0,0 z m -1.05834,-2.11667 c -0.67955,-0.29805 0.66424,1.71905 0,0 z m -78.994262,-0.65815 c -1.099741,-1.1192 1.019992,2.17149 0,0 z m 2.52969,-1.45852 c -0.679549,-0.29805 0.664232,1.71904 0,0 z m 75.853892,-0.44648 c -0.85086,-2.41944 0.40202,3.24653 0,0 z m -72.666962,-5.85391 c -1.063328,1.62985 -1.327187,5.50485 -0.346891,1.56387 l 0.199931,-0.77575 z m 72.219312,2.33164 c -0.67955,-0.29805 0.66422,1.71904 0,0 z m -0.49723,-0.77622 c -0.60555,-3.43468 -0.39375,2.09402 0,0 z m -73.321512,-0.54669 c -0.679541,-0.29808 0.664219,1.71906 0,0 z m 42.152582,42.01841 c 0.76476,-1.44271 1.06252,-0.21293 0,0 z m -14.022902,-1.22302 c -0.77467,-1.04149 2.560572,1.60846 0,0 z m 18.979432,-6.38283 c 1.65986,-1.19677 -0.51058,0.90965 0,0 z m -15.72203,-15.12329 c -7.544074,-7.01047 -16.173306,-12.92652 -25.663633,-16.97504 5.182693,0.0922 9.113686,4.03484 13.583803,6.13933 4.666669,2.8666 9.224668,6.07885 12.77274,10.29965 0.15717,0.35329 -0.39104,1.16304 -0.69291,0.53606 z m -1.140742,-3.14079 c -6.924173,-6.31559 -14.79599,-11.57574 -23.229529,-15.65514 5.342947,0.51894 9.633044,4.67611 14.294052,7.07539 3.141235,2.78149 10.374569,6.32749 10.328599,9.73608 l -0.7268,-0.54461 -0.666322,-0.61174 z m -4.544577,-7.60876 c 1.56856,0.7825 6.419699,5.38363 2.180508,1.85263 -0.729481,-0.61432 -1.466245,-1.22051 -2.180508,-1.85263 z m 12.813129,3.95687 c 1.11146,-2.08239 5.74693,-5.09602 1.87251,-1.52831 -0.61397,0.44259 -1.10815,1.34636 -1.87251,1.52831 z m 13.86759,-10.83993 c 1.7425,-1.24528 5.43326,-2.97277 6.24461,-3.29246 -2.06124,1.12964 -4.07077,2.38878 -6.24461,3.29246 z m -38.740469,-1.61223 c 1.498738,0.64761 7.692667,5.00188 6.128581,4.41636 -2.095213,-1.39061 -4.232431,-2.75814 -6.128581,-4.41636 z m -9.387084,-4.32325 c 2.057653,0.55883 9.625735,4.6529 3.979762,2.00077 -1.334068,-0.64647 -2.724927,-1.2063 -3.979762,-2.00077 z m 57.810963,0.92689 c 1.76238,-1.00808 9.9136,-3.27377 4.42363,-1.20277 -1.21282,0.31964 -3.67838,1.73897 -4.42363,1.20277 z"
         id="path18142"
         sodipodi:nodetypes="sssssssscsssssssssssssssssssssssssssssssssssscscssssssssssssssssssssssssssssssssssssssssssscscsscsssssssssssssssssssssssscssssssssssssscsscssssscssssscssscsssscsssssssssssssssssssssssssssssssssssssssssssssssssssssssssssssssssssssssssssssssssssssssssssssssssssssssccsssssssssssssssssssssssssssssssscsssssssssssssssssssssssssssssssssssssssssssssssssssssssssssssssssssssssssssssssss" />
      <path
         style="fill:#669c63;fill-opacity:1;stroke-width:0.0672708"
         d="m 104.15229,363.3149 c 4.12166,0.0973 -1.14527,-6.91889 0.82096,-7.7192 5.1742,0.92846 11.49703,0.34492 15.04506,-3.98492 2.18472,-2.17301 2.24361,-6.6775 -1.8037,-6.30453 -5.31062,-0.38053 -10.76386,-0.58246 -15.96768,0.75914 -3.220419,0.89581 -6.593215,1.30841 -9.724224,2.47799 -2.674738,2.55808 2.472433,4.23737 4.397787,4.89895 2.049765,2.92723 3.346447,6.47618 4.824467,9.74539 0.67491,0.42335 1.63486,0.0842 2.40733,0.12718 z m 3.68715,-8.70166 c -2.0504,0.045 -5.84912,-1.70102 -5.79961,-3.09406 2.50046,-0.52392 5.18706,2.35409 7.64712,3.1798 -0.61526,0.0511 -1.23344,-0.0567 -1.84751,-0.0857 z m 3.34715,-0.3312 c -2.74555,-1.03551 -5.35185,-2.40355 -7.91653,-3.8212 0.69359,-1.75337 2.02987,-0.0978 3.11245,0.22197 2.42238,1.3169 5.20328,2.18792 7.61284,3.30681 -0.90024,0.21902 -1.89024,0.66128 -2.80876,0.29242 z m 2.78726,-1.28504 c -3.25076,-1.1244 -6.46117,-2.43027 -9.45157,-4.1405 1.67225,0.002 3.36614,-0.0849 4.82919,0.89904 2.48092,1.1496 5.11036,1.94232 7.64234,2.9451 -0.95649,0.80668 -1.91407,0.74132 -3.01996,0.29636 z m -13.23556,-0.1459 c -1.514195,-1.09159 2.59688,0.80985 0.44325,0.10773 z m -2.799867,-0.47833 c -1.101691,-0.64554 3.396857,-2.03563 3.612127,-3.62706 0.49188,-1.84345 4.52712,-2.26223 2.18445,0.0734 -1.35987,1.55985 -3.52633,4.10929 -5.796577,3.55368 z m 18.614677,-0.71489 c -1.95188,-0.65037 -6.14692,-1.91102 -6.75952,-2.62556 3.06541,0.38485 6.2527,0.74141 9.09105,1.98346 -0.52985,1.00191 -1.375,1.01969 -2.33153,0.6421 z m -20.90225,-0.078 c -1.249291,-0.70405 2.529244,-2.12661 3.287935,-3.18869 1.365755,-0.62363 3.468655,-0.90604 1.434095,0.79871 -1.230405,1.04923 -2.968299,3.03389 -4.72203,2.38998 z m -1.709163,-0.86063 c -3.19856,-1.55848 6.078003,-2.92032 2.297567,-1.01162 -0.720718,0.25825 -1.504336,1.44591 -2.297567,1.01162 z m 24.135703,-0.93831 c -4.21861,-1.35179 -8.73129,-1.42225 -13.05057,-1.84859 0.42823,-2.17255 3.68079,-0.35645 5.23284,-0.78633 2.96484,0.53916 7.69093,0.46344 9.48474,2.41959 -0.25617,0.97139 -1.07513,0.29241 -1.66701,0.21533 z m 0.50453,-1.92846 c -2.59792,-0.73432 -5.26346,-1.1878 -7.93798,-1.53281 3.13501,0.0425 6.38742,-0.17218 9.39222,0.81459 1.0144,1.53183 -0.63757,1.01212 -1.45424,0.71822 z m -29.195611,-0.27563 c 1.857386,-0.67667 4.594021,-1.33792 3.400364,-3.84878 0.462515,-3.9581 7.337527,-0.97744 6.263353,-4.70479 0.07848,-1.57328 3.838094,-1.98208 0.965084,-0.55846 -0.988954,3.09148 2.51277,6.60895 5.67682,4.71723 1.25245,-0.35635 5.86483,-0.0912 2.4853,-1.55997 -1.39649,-0.31104 -4.39709,-1.75631 -4.60452,-2.42853 1.33202,0.47895 6.03371,2.63145 3.67189,-0.34955 -2.14756,-2.48417 2.62234,1.90711 3.12519,2.73687 1.97787,2.37926 5.7381,0.67261 8.44547,1.60385 1.88913,0.0476 3.69904,2.20462 5.28013,0.1651 4.23452,-2.72613 -4.36307,-0.25178 -4.04534,-1.80973 2.65269,-0.11794 6.72085,-0.20662 7.52981,-3.23636 1.03954,-3.04051 1.02627,-6.41705 0.25063,-9.51394 -2.11892,1.05768 -1.85387,5.49945 -3.4954,6.36116 0.38037,-1.38761 2.31633,-6.34805 -0.58871,-3.63464 -1.90756,1.84896 1.3834,-2.28347 2.14115,-2.85694 0.90496,-0.88103 2.09647,-1.69208 1.12543,-2.99585 -1.39536,-4.22493 -3.48761,-8.2685 -6.44581,-11.61314 -1.05932,1.06665 -1.30995,2.39207 -0.76637,3.74373 -0.1312,2.39359 1.94168,4.21585 3.08247,5.57328 -2.20032,-2.39368 -5.56558,-1.17639 -4.67641,2.24796 -0.20509,2.09876 1.78657,4.73638 2.26643,5.69189 -2.66631,-3.52418 -5.68153,1.99715 -2.75514,3.95422 1.23922,1.37693 2.46863,2.83996 4.33566,3.33718 1.40676,0.44254 3.99866,1.23433 0.81962,0.9106 -2.9782,-1.32328 -4.73275,1.16576 -6.53798,3.00994 2.1655,-2.46788 2.36864,-6.21074 -1.05927,-7.6586 -1.79265,-0.18824 -4.3904,1.43639 -5.45353,1.29773 2.47309,-2.11247 6.75455,-1.60853 6.72467,-5.76245 2.41004,-1.72068 1.13196,-5.62105 -2.00228,-4.18478 2.84735,-0.84242 3.45485,-3.83948 4.78614,-6.27197 0.66874,-2.89543 -2.94791,-5.00485 -3.41276,-1.4077 0.74231,1.26728 1.29866,2.79478 -0.31813,0.99989 -1.86235,-1.84107 -5.57319,-1.35702 -6.7957,-0.0414 1.269,-1.5741 1.74105,-3.01656 0.17971,-4.62608 -0.31771,-1.04401 -0.85562,-5.50656 0.30747,-2.29069 0.2615,3.23692 4.04136,6.85916 7.03421,4.06381 1.3041,-0.63758 4.10447,-3.01694 2.60277,-4.35548 -1.67659,-1.1748 -3.76204,-4.40819 -5.57547,-3.99854 -1.12043,2.02665 1.3669,5.47299 0.92801,6.46204 -0.80074,-1.06912 -2.48192,-5.69902 -2.82987,-2.05679 -0.53194,1.14341 -1.114,-3.20619 -0.10342,-4.18122 1.96129,-3.67879 -3.59637,-2.66592 -5.42892,-1.33963 -1.06014,0.60491 -5.15946,0.29593 -2.04141,-0.1862 1.91533,-0.36272 6.27058,-2.51407 2.08618,-3.14172 -1.82894,-0.48637 -5.21795,-2.88257 -4.93155,0.76252 -1.505063,3.82113 -6.006816,-1.26825 -6.415143,3.16641 -0.682254,1.03258 -0.844508,6.49787 -1.335128,2.71811 0.413591,-1.63184 1.07786,-3.24388 -1.263023,-1.88855 -2.489387,0.43591 -3.881271,-3.96904 -3.750886,-4.94805 0.744608,2.55783 3.636102,6.23377 5.876685,2.73138 1.251881,-0.90015 2.101835,-4.74143 0.252681,-4.87683 -3.047926,0.0823 -6.119195,0.25161 -9.124989,0.75554 -2.586962,2.02406 -3.591409,6.9684 -0.59702,9.0243 2.45422,1.6208 5.204015,0.98038 7.927457,0.93654 -2.193236,0.19917 -5.19134,1.84391 -6.430779,4.33971 -1.685185,0.89015 -1.085746,6.99941 -1.86401,2.71601 -0.211283,-4.05902 -5.147547,-0.60939 -5.970791,1.49264 -1.513986,0.6686 -1.560726,5.11956 -2.234632,4.21052 0.547776,-4.58726 -4.293335,-2.01806 -6.855043,-2.09302 -3.329865,-0.0554 5.202789,-0.84264 1.542878,-2.57258 -1.276627,-0.46298 -2.574011,-1.45003 -0.190044,-0.83928 2.073348,0.86355 2.300741,3.08025 5.019328,1.99722 2.638485,0.2083 4.572424,-3.87166 1.85978,-5.30242 2.17396,2.31746 4.675732,0.0852 7.401972,0.23848 2.535323,-1.0429 3.095049,-5.45905 -0.540301,-3.83549 -0.677546,1.39591 -1.443735,2.80017 -1.016962,0.23327 -0.342518,-2.5956 -1.541718,-6.12897 -4.511119,-6.31539 1.689607,-0.49841 3.764361,0.28405 3.72755,-2.39603 1.951294,-1.61273 1.056584,-1.81966 -0.839877,-1.10977 -4.519835,1.19963 -8.631032,3.65984 -12.065814,6.8048 0.521606,2.8775 5.157484,3.62344 5.181226,0.17398 -0.01492,-0.93759 -0.681957,-5.02654 0.269087,-1.91573 0.09992,2.25353 2.258388,2.5425 4.097943,2.91171 3.590512,1.05028 -2.408744,-0.21525 -2.976761,0.6892 -0.46129,1.54973 -1.376331,7.22484 -1.312314,2.68506 0.14815,-1.87274 0.0045,-2.40342 -1.832343,-1.20663 -3.176794,1.17163 -3.136637,-5.49603 -5.307999,-1.48721 -1.718104,1.32996 -1.653673,2.52548 0.542494,1.29473 -2.45333,0.71255 -1.305556,5.72498 0.94128,3.18968 0.619039,-0.75204 2.421823,-3.30634 1.180871,-0.80979 -2.133268,2.96929 4.595037,0.61784 4.491494,3.91077 0.601037,2.98007 -1.481898,-3.1383 -3.518684,-1.69789 -3.109553,-0.48444 -6.820727,0.93637 -6.545617,4.63015 -0.08397,2.48618 -1.426282,4.93901 -1.811096,7.184 0.696362,1.07398 1.087552,4.57551 2.675722,3.17249 1.870648,-0.70964 3.030783,-0.99937 1.409821,-2.83602 -2.080847,-3.21577 2.01394,-5.67339 4.913784,-4.82911 -1.245713,0.27775 -6.93075,2.10975 -3.878859,4.82589 1.07662,-0.61405 4.957987,-3.48967 2.260183,-0.72362 -2.889725,2.07681 0.329547,6.78449 3.310208,6.35145 1.563462,0.93676 4.550712,-1.53643 1.365801,-1.79086 -2.612434,-0.78415 2.73526,0.73329 1.891539,-1.64991 1.159505,-1.51609 1.519444,-1.54137 0.456892,0.14868 -0.602131,2.90618 3.280573,-1.261 3.531754,-1.56049 -1.228312,-1.13118 -6.622033,-1.5313 -2.304653,-1.56451 2.034061,-0.2915 -1.736087,-4.38031 0.805502,-5.78924 2.571871,-1.88086 -1.527168,1.96081 -0.218672,3.19765 0.04038,2.95598 4.789774,5.16406 4.178711,0.84457 -1.120527,-1.13997 -2.471754,-4.65287 -0.304832,-1.72556 2.765767,1.01665 -0.813238,5.9407 2.881108,4.33619 3.276012,-0.14876 6.048401,-1.95181 8.283186,-4.22555 3.225083,-3.20413 8.292134,-3.17006 12.340594,-1.81627 2.63944,1.05601 -1.52954,-4.65742 0.82468,-1.71461 0.55754,2.91025 3.66839,1.00512 5.23882,1.66638 -1.89183,0.20323 -7.84208,1.65878 -3.63529,3.50156 1.08016,0.22557 4.12331,2.22786 1.45424,1.0773 -4.57973,-1.92217 -1.9936,4.87295 -4.69908,6.67266 -0.68694,1.65102 -6.524031,1.22118 -5.5369,0.79886 2.51186,0.22201 7.69654,-1.74949 5.42717,-4.60364 -1.04617,-0.15444 -4.96033,-4.16856 -2.03101,-2.02066 1.69254,2.66033 4.37553,0.6906 3.07856,-1.93679 -0.3136,-1.88489 -1.68802,-3.12394 -3.54673,-2.60819 -2.41547,-0.11117 -6.726924,0.16177 -7.343321,2.27956 2.781718,0.55641 7.454191,3.76216 3.914851,6.50228 -0.852416,0.98255 -2.540021,1.88241 -0.8674,-0.006 3.21289,-1.34633 -0.860423,-7.15858 -1.513676,-2.96237 -0.155948,1.30601 -1.270308,3.18606 -0.785034,0.68001 1.454537,-2.90747 -2.402018,-4.88964 -3.871044,-1.97638 -1.633463,0.96249 -1.578117,2.68944 0.421554,1.17849 -1.372483,1.24818 -4.343301,4.25229 -2.679782,7.11972 0.179194,1.6008 3.18093,-1.25071 4.04964,-0.43446 -2.762535,0.48309 -3.12301,2.26554 -2.573108,4.72891 -1.091055,-3.60902 -6.054448,-0.33586 -3.621057,2.37916 -0.602404,-0.45233 -1.516823,-2.86053 -1.884217,-0.32004 -1.328545,-3.04009 2.949109,-3.83869 3.759864,-5.01515 -1.864295,-2.49122 -0.38082,-5.77711 0.09727,-8.22857 -3.82335,1.39178 -8.694345,0.71575 -11.546637,4.14584 -2.931331,1.79118 -2.22653,4.81884 -1.382096,7.57986 0.238804,3.44586 4.151466,4.37392 6.902222,5.10922 0.710633,0.26233 1.121504,-1.9794 1.055916,-2.39304 -1.140251,-1.77843 -1.976025,-2.13107 -3.23148,-0.23785 2.508206,-2.94265 -0.354452,-7.72983 -3.910254,-4.91931 0.777229,-1.93032 3.283253,-2.23659 4.678709,-0.8491 0.235411,-2.62424 2.347698,-7.21517 4.746685,-6.28123 -3.190349,0.94203 -3.860891,4.83662 -3.717793,7.71728 -0.143847,4.03063 4.152869,4.2092 6.236967,6.21042 -1.370952,-1.19424 -6.060675,-0.97413 -3.651968,1.0852 0.964387,0.0136 1.933161,0.0222 2.894619,-0.056 z m -3.441498,-22.0212 c -3.289398,-0.90678 4.568645,0.2185 3.535134,-3.03742 -0.245642,-2.92564 -2.84599,0.34116 -4.336654,0.1603 2.647779,-0.93223 3.584558,-3.93867 2.852504,-5.88283 1.251513,2.24337 3.067505,5.40094 1.562447,7.90858 -0.687984,1.47688 -2.36102,0.92381 -3.613431,0.85137 z m 8.632638,-3.41646 c -2.753929,-0.14353 -1.910033,-8.11446 -1.181295,-3.70395 -1.089826,2.74726 4.902137,4.66658 3.676657,1.65339 -1.052622,-1.15344 -2.36497,-4.00832 -0.248165,-1.39978 2.436242,3.77048 6.522214,-1.32694 3.610154,-3.89102 -2.719646,-2.05293 -1.478743,-5.54099 0.16172,-7.81086 -0.27737,2.47112 -2.273904,5.59159 0.54899,7.36753 1.49387,0.81412 3.71818,-2.23902 5.08709,-1.77449 -1.92491,0.88332 -5.10213,2.99837 -1.42064,4.23238 3.07673,2.46385 -4.33123,-2.65827 -2.61233,0.97159 -0.20317,2.94088 -5.120551,5.04618 -7.622181,4.35521 z m -0.616709,23.58999 c 2.604062,0.64304 -0.06513,-5.00714 -0.445038,-1.53707 -0.07835,0.53405 -0.830798,2.16536 0.445038,1.53707 z m 3.161736,-0.70537 c 1.658486,-0.57009 5.939624,-0.47385 2.838348,-2.64075 -2.592309,-2.9539 -7.2966,2.32476 -2.838348,2.64075 z M 73.073098,336.8492 c 4.416603,-0.74906 -3.614025,0.24892 -3.297254,-2.38208 -0.461372,-3.5175 -6.458586,-0.42294 -2.319876,1.0082 1.62791,1.15006 3.664247,1.47243 5.61713,1.37388 z m -10.160491,-9.39204 c 0.666438,-2.47766 1.764471,-5.3383 0.907833,-7.81077 -2.039857,0.72354 -1.16105,5.41677 -1.235501,7.61724 -0.220896,0.41561 0.352393,0.48977 0.327668,0.19353 z m 1.852522,-8.75452 c 2.309743,-0.54447 2.409911,-3.21547 0.794287,-4.33713 -0.3184,0.90686 -3.613284,5.0401 -0.794287,4.33713 z m 34.308206,-13.38611 c 2.882395,-1.31093 0.966585,-4.41143 -1.764139,-3.61976 -3.133022,-1.0618 -0.744953,5.34848 1.764139,3.61976 z"
         id="path19606"
         sodipodi:nodetypes="cccccccccsccsscccccccccccccsccsscccccccccccccccccccccccccccccccccccccccccccccccccccccccccccccccccccccccccccccccccccccccccccccccccccccccccccccccccccccccccccccccccccccccccccccccccccccccccccccccccccccccccccccccccccccccccccccccccccccc" />
    </g>
  </g>
</svg>
